<?xml version="1.0" encoding="UTF-8"?>
<svg width="24px" height="24px" viewBox="0 0 24 24" version="1.1" xmlns="http://www.w3.org/2000/svg" xmlns:xlink="http://www.w3.org/1999/xlink">
    <!-- Generator: Sketch 54.1 (76490) - https://sketchapp.com -->
    <title>ic_bag</title>
    <desc>Created with Sketch.</desc>
    <g id="ic_bag" stroke="none" stroke-width="1" fill="none" fill-rule="evenodd">
        <path d="M20,21.9964532 L4,21.9964532 C2.34314575,21.9964532 1,20.6533074 1,18.9964532 L3,8.99645319 C3,7.33959894 4.34314575,5.99645319 6,5.99645319 L7,5.99645319 C7.52793228,3.65953243 9.60418884,2 12,2 C14.3958112,2 16.4720677,3.65953243 17,5.99645319 L18,5.99645319 C19.6568542,5.99645319 21,7.33959894 21,8.99645319 L23,18.9964532 C23,20.6533074 21.6568542,21.9964532 20,21.9964532 Z M12,3.99645319 C10.6874008,3.99456345 9.50310147,4.78409635 9,5.99645319 L15,5.99645319 C14.4968985,4.78409635 13.3125992,3.99456345 12,3.99645319 L12,3.99645319 Z M19,9.99645319 C18.9967052,8.89325132 18.1032019,7.99974799 17,7.99645319 L17,8.99645319 L17,8.99645319 C17,9.54873794 16.5522847,9.99645319 16,9.99645319 C15.4477153,9.99645319 15,9.54873794 15,8.99645319 L15,8.99645319 L15,7.99645319 L9,7.99645319 L9,8.99645319 C9,9.54873794 8.55228475,9.99645319 8,9.99645319 C7.44771525,9.99645319 7,9.54873794 7,8.99645319 L7,7.99645319 C5.8954305,7.99645319 5,8.89188369 5,9.99645319 L3,17.9964532 C3,19.1010227 3.8954305,19.9964532 5,19.9964532 L19,19.9964532 C20.1032019,19.9931584 20.9967052,19.0996551 21,17.9964532 L19,9.99645319 Z" id="Bag_icon" fill="#FFFFFF" fill-rule="nonzero"></path>
    </g>
</svg>